<svg
        xmlns="http://www.w3.org/2000/svg"
        style="transform: matrix(1.69, 0, 0, 1.69, -4, 102); transform-origin: 50% 50%; cursor: move; max-height: 288.34px; transition: none 0s ease 0s;"
        width="1024" height="1024" viewBox="0 0 1280 1280">
    <g fill="rgb(0,0,0)"
       style="transform: none; transform-origin: 50% 50%;"
    >
        <g style="transform: none;">
            <path
                    d="M320 1040 l0 -200 320 0 320 0 0 200 0 200 -320 0 -320 0 0 -200z m560 80 l0 -40 -240 0 -240 0 0 40 0 40 240 0 240 0 0 -40z m0 -160 l0 -40 -240 0 -240 0 0 40 0 40 240 0 240 0 0 -40z"></path>
            <path
                    d="M135 991 c-45 -11 -82 -38 -107 -80 -22 -35 -23 -44 -23 -271 0 -228 1 -236 23 -272 32 -51 78 -77 151 -84 l61 -7 0 122 0 121 400 0 400 0 0 -121 0 -122 61 7 c73 7 119 33 151 84 22 36 23 44 23 272 0 228 -1 236 -23 272 -32 51 -78 77 -151 84 l-61 7 0 -122 0 -121 -400 0 -400 0 0 120 0 120 -37 -1 c-21 -1 -52 -4 -68 -8z"></path>
            <path d="M320 240 l0 -200 320 0 320 0 0 200 0 200 -320 0 -320 0 0 -200z"></path>
        </g>
    </g>
</svg>